<svg width="1200" height="800" viewBox="0 0 1200 800" fill="none" xmlns="http://www.w3.org/2000/svg">
  <rect width="1200" height="800" rx="40" fill="url(#paint0_linear_1_2)"/>
  <circle cx="930" cy="180" r="200" fill="#EAB308" fill-opacity="0.14"/>
  <circle cx="270" cy="620" r="260" fill="#2563EB" fill-opacity="0.18"/>
  <path d="M600 160L420 235V410C420 535 505 650 600 680C695 650 780 535 780 410V235L600 160Z" fill="#0A192F" stroke="#EAB308" stroke-width="14"/>
  <path d="M600 255C546 255 503 298 503 352C503 406 546 449 600 449C654 449 697 406 697 352C697 298 654 255 600 255Z" fill="#EAB308" fill-opacity="0.12"/>
  <path d="M600 292C566 292 538 320 538 354C538 388 566 416 600 416C634 416 662 388 662 354C662 320 634 292 600 292Z" fill="#EAB308"/>
  <path d="M570 350H630V468H570V350Z" fill="#EAB308"/>
  <path d="M530 690H670C718 690 760 731 760 780H440C440 731 482 690 530 690Z" fill="#0A192F" opacity="0.92"/>
  <path d="M220 560H340M220 610H300M860 560H980M900 610H980" stroke="white" stroke-opacity="0.12" stroke-width="10" stroke-linecap="round"/>
  <defs>
    <linearGradient id="paint0_linear_1_2" x1="120" y1="80" x2="1080" y2="760" gradientUnits="userSpaceOnUse">
      <stop stop-color="#0A192F"/>
      <stop offset="0.55" stop-color="#132B4F"/>
      <stop offset="1" stop-color="#1E3A8A"/>
    </linearGradient>
  </defs>
</svg>